<!DOCTYPE svg PUBLIC "-//W3C//DTD SVG 1.1//EN" "http://www.w3.org/Graphics/SVG/1.1/DTD/svg11.dtd">
<!-- Uploaded to: SVG Repo, www.svgrepo.com, Transformed by: SVG Repo Mixer Tools -->
<svg width="800px" height="800px" viewBox="0 0 24.00 24.00" fill="none" xmlns="http://www.w3.org/2000/svg" stroke="" stroke-width="0.00024000000000000003">
<g id="SVGRepo_bgCarrier" stroke-width="0" transform="translate(0,0), scale(1)"/>
<g id="SVGRepo_tracerCarrier" stroke-linecap="round" stroke-linejoin="round" stroke="#cccccc" stroke-width="0.9600000000000002"> <path d="M12 4C9.79 4 8 5.79 8 8C8 10.21 9.79 12 12 12C14.21 12 16 10.21 16 8C16 5.79 14.21 4 12 4Z" fill="#ffffff"/> <path d="M4 18C4 15.34 9.33 14 12 14C14.67 14 20 15.34 20 18V20H4V18Z" fill="#ffffff"/> </g>
<g id="SVGRepo_iconCarrier"> <path d="M12 4C9.79 4 8 5.79 8 8C8 10.21 9.79 12 12 12C14.21 12 16 10.21 16 8C16 5.79 14.21 4 12 4Z" fill="#ffffff"/> <path d="M4 18C4 15.34 9.33 14 12 14C14.67 14 20 15.34 20 18V20H4V18Z" fill="#ffffff"/> </g>
</svg>